<svg width="150" height="120" viewBox="0 0 150 120" fill="none" xmlns="http://www.w3.org/2000/svg">
<path fill-rule="evenodd" clip-rule="evenodd" d="M65.3795 102.41C97.5139 102.228 123.442 80.512 123.291 53.9062C123.14 27.3004 96.9678 5.87979 64.8334 6.06193C32.699 6.24407 6.77118 27.96 6.92199 54.5658C6.98975 66.5206 12.3113 77.4286 21.0667 85.8002L15.4201 108.591C15.3639 108.818 15.5792 109.019 15.8016 108.946L44.8995 99.4625C51.2762 101.407 58.1782 102.451 65.3795 102.41Z" fill="#CDF6E8"/>
<path d="M31.0005 36.5002C31.0005 35.1195 32.137 34.0002 33.539 34.0002H94.462C95.864 34.0002 97.0005 35.1195 97.0005 36.5002C97.0005 37.8809 95.864 39.0002 94.462 39.0002H33.5389C32.137 39.0002 31.0005 37.8809 31.0005 36.5002Z" fill="white"/>
<path d="M31.0005 53.5002C31.0005 52.1195 32.137 51.0002 33.539 51.0002H94.462C95.864 51.0002 97.0005 52.1195 97.0005 53.5002C97.0005 54.8809 95.864 56.0002 94.462 56.0002H33.5389C32.137 56.0002 31.0005 54.8809 31.0005 53.5002Z" fill="white"/>
<path d="M31.0005 69.5002C31.0005 68.1195 32.137 67.0002 33.539 67.0002H94.462C95.864 67.0002 97.0005 68.1195 97.0005 69.5002C97.0005 70.8809 95.864 72.0002 94.462 72.0002H33.5389C32.137 72.0002 31.0005 70.8809 31.0005 69.5002Z" fill="white"/>
<path d="M141.789 6.33638C141.888 4.90797 141.51 4.08962 140.524 3.59181C139.215 2.93101 137.854 3.35144 137.194 4.62082C136.975 5.04081 136.892 6.49922 137.051 7.10457C137.137 7.42761 137.13 7.43276 136.957 7.17326C135.696 5.28103 134.032 4.82089 132.725 6.00274C132.03 6.63029 131.781 7.31655 131.917 8.22434C132.002 8.78893 132.155 9.03475 132.851 9.72188L133.683 10.5441L132.482 10.5433C131.493 10.5427 131.207 10.5969 130.865 10.8503C129.405 11.9322 129.405 13.8618 130.866 14.9422C131.216 15.201 131.49 15.2494 132.589 15.2465C133.455 15.2443 133.81 15.2879 133.642 15.3762C132.759 15.8415 131.846 17.1591 131.846 17.9703C131.846 19.0289 132.819 20.2185 133.841 20.4105C134.886 20.6066 136.169 19.8743 136.956 18.6329C137.122 18.3712 137.133 18.3925 137.053 18.8281C136.898 19.6652 136.964 20.7296 137.197 21.1812C138.133 22.9918 140.762 22.9447 141.576 21.1029C141.826 20.5383 141.864 20.2354 141.793 19.3862L141.707 18.3551L141.972 18.7885C142.732 20.0299 143.995 20.6666 145.062 20.3463C147.283 19.6804 147.527 17.0922 145.506 15.6273L144.947 15.2217L146.003 15.2832C146.896 15.3353 147.162 15.2921 147.721 15.0031C149.473 14.098 149.412 11.5292 147.618 10.7353C147.073 10.494 146.735 10.4476 145.938 10.5046L144.939 10.5761L145.502 10.1679C146.352 9.55197 146.735 8.92192 146.81 8.01927C146.919 6.70782 146.32 5.82327 145.068 5.448C144.041 5.13996 142.692 5.81591 141.973 6.99835L141.713 7.42614L141.789 6.33638Z" fill="#8D79FE"/>
</svg>
