<svg width="45" height="24" viewBox="0 0 45 24" fill="none" xmlns="http://www.w3.org/2000/svg">
<path d="M5.90625 7.50391C5.90625 7.97656 6.08789 8.42773 6.45117 8.85742C6.81836 9.2832 7.29297 9.64258 7.875 9.93555C8.46094 10.2246 9.07031 10.4141 9.70312 10.5039L9.32812 11.2539C8.78125 11.1641 8.25195 11.0078 7.74023 10.7852C7.22852 10.5586 6.76953 10.2773 6.36328 9.94141C5.96094 9.60156 5.65234 9.22461 5.4375 8.81055C5.22266 9.22852 4.91406 9.60547 4.51172 9.94141C4.10938 10.2773 3.65234 10.5586 3.14062 10.7852C2.62891 11.0078 2.09766 11.1641 1.54688 11.2539L1.17188 10.5039C1.80859 10.4141 2.41797 10.2246 3 9.93555C3.58203 9.64648 4.05273 9.28906 4.41211 8.86328C4.77539 8.4375 4.95703 7.98438 4.95703 7.50391V6.90625H5.90625V7.50391ZM0.679688 12.4023H10.1719V13.1758H5.85938V16.9492H4.95703V13.1758H0.679688V12.4023ZM19.6875 12.7422H18.7617V10.0117H16.6641V9.25H18.7617V6.53125H19.6875V12.7422ZM11.0977 11.9102C11.6094 11.7266 12.0645 11.457 12.4629 11.1016C12.8652 10.7461 13.1797 10.3379 13.4062 9.87695C13.6328 9.41602 13.7461 8.94141 13.7461 8.45312V8.06641H11.3906V7.29297H17.0039V8.06641H14.6719V8.44141C14.6719 8.89062 14.7793 9.32617 14.9941 9.74805C15.209 10.1699 15.5117 10.5449 15.9023 10.873C16.293 11.1973 16.7383 11.4453 17.2383 11.6172L16.7578 12.3555C16.1797 12.1445 15.6699 11.832 15.2285 11.418C14.791 11.0039 14.459 10.5254 14.2324 9.98242C14.0098 10.5918 13.666 11.1289 13.2012 11.5938C12.7402 12.0586 12.1992 12.4102 11.5781 12.6484L11.0977 11.9102ZM12.7383 15.0039C12.7383 14.5977 12.877 14.25 13.1543 13.9609C13.4355 13.6719 13.8379 13.4512 14.3613 13.2988C14.8887 13.1465 15.5117 13.0703 16.2305 13.0703C16.9492 13.0703 17.5703 13.1465 18.0938 13.2988C18.6172 13.4512 19.0195 13.6719 19.3008 13.9609C19.582 14.25 19.7227 14.5977 19.7227 15.0039C19.7227 15.4102 19.582 15.7578 19.3008 16.0469C19.0195 16.3359 18.6172 16.5566 18.0938 16.709C17.5703 16.8652 16.9492 16.9453 16.2305 16.9492C15.5078 16.9453 14.8848 16.8652 14.3613 16.709C13.8379 16.5566 13.4355 16.3359 13.1543 16.0469C12.877 15.7578 12.7383 15.4102 12.7383 15.0039ZM13.6523 15.0039C13.6523 15.25 13.7539 15.4648 13.957 15.6484C14.1602 15.8281 14.4531 15.9668 14.8359 16.0645C15.2227 16.1621 15.6777 16.2109 16.2012 16.2109C16.7363 16.2109 17.1992 16.1621 17.5898 16.0645C17.9805 15.9707 18.2812 15.834 18.4922 15.6543C18.7031 15.4707 18.8086 15.2539 18.8086 15.0039C18.8086 14.7539 18.7051 14.5371 18.498 14.3535C18.291 14.1699 17.9922 14.0293 17.6016 13.9316C17.2148 13.834 16.7578 13.7852 16.2305 13.7852C15.6992 13.7852 15.2402 13.834 14.8535 13.9316C14.4668 14.0293 14.1699 14.1699 13.9629 14.3535C13.7559 14.5371 13.6523 14.7539 13.6523 15.0039Z" fill="#6F7276"/>
<path d="M35.65 12C35.65 12.1167 35.6333 12.229 35.6 12.337C35.5667 12.4457 35.5 12.5417 35.4 12.625L30.9 17.15C30.75 17.2833 30.575 17.35 30.375 17.35C30.175 17.35 30 17.275 29.85 17.125C29.7167 16.975 29.65 16.8 29.65 16.6C29.65 16.4 29.7167 16.225 29.85 16.075L33.925 12L29.85 7.9C29.7 7.76666 29.629 7.6 29.637 7.4C29.6457 7.2 29.7167 7.025 29.85 6.875C30 6.725 30.179 6.65 30.387 6.65C30.5957 6.65 30.7667 6.725 30.9 6.875L35.4 11.375C35.5 11.4583 35.5667 11.554 35.6 11.662C35.6333 11.7707 35.65 11.8833 35.65 12Z" fill="#93989C"/>
</svg>
