<svg width="40" height="40" viewBox="0 0 40 40" fill="none" xmlns="http://www.w3.org/2000/svg">
<circle cx="20.5" cy="20.5" r="12.5" fill="white"/>
<mask id="mask0_1_156" style="mask-type:alpha" maskUnits="userSpaceOnUse" x="0" y="0" width="40" height="40">
<rect y="40" width="40" height="40" transform="rotate(-90 0 40)" fill="#D9D9D9"/>
</mask>
<g mask="url(#mask0_1_156)">
<path d="M24.208 20L18.292 14.083L17.625 14.833L22.792 20L17.625 25.167L18.292 25.917L24.208 20ZM34.5 20C34.5 22 34.125 23.882 33.375 25.646C32.625 27.41 31.5903 28.9517 30.271 30.271C28.9517 31.5903 27.41 32.625 25.646 33.375C23.882 34.125 22 34.5 20 34.5C18 34.5 16.118 34.125 14.354 33.375C12.59 32.625 11.0483 31.5903 9.729 30.271C8.40967 28.9517 7.375 27.41 6.625 25.646C5.875 23.882 5.5 22 5.5 20C5.5 18 5.875 16.118 6.625 14.354C7.375 12.59 8.40967 11.0483 9.729 9.729C11.0483 8.40967 12.59 7.375 14.354 6.625C16.118 5.875 18 5.5 20 5.5C22 5.5 23.882 5.875 25.646 6.625C27.41 7.375 28.9517 8.40967 30.271 9.729C31.5903 11.0483 32.625 12.59 33.375 14.354C34.125 16.118 34.5 18 34.5 20Z" fill="#1D1E1F"/>
</g>
</svg>
