<svg width="30" height="30" viewBox="0 0 30 30" fill="none" xmlns="http://www.w3.org/2000/svg">
<path d="M15 19.208L20.917 13.292L20.167 12.625L15 17.792L9.833 12.625L9.083 13.292L15 19.208ZM15 29.5C13 29.5 11.118 29.125 9.354 28.375C7.59 27.625 6.04833 26.5903 4.729 25.271C3.40967 23.9517 2.375 22.41 1.625 20.646C0.875 18.882 0.5 17 0.5 15C0.5 13 0.875 11.118 1.625 9.354C2.375 7.59 3.40967 6.04833 4.729 4.729C6.04833 3.40967 7.59 2.375 9.354 1.625C11.118 0.875 13 0.5 15 0.5C17 0.5 18.882 0.875 20.646 1.625C22.41 2.375 23.9517 3.40967 25.271 4.729C26.5903 6.04833 27.625 7.59 28.375 9.354C29.125 11.118 29.5 13 29.5 15C29.5 17 29.125 18.882 28.375 20.646C27.625 22.41 26.5903 23.9517 25.271 25.271C23.9517 26.5903 22.41 27.625 20.646 28.375C18.882 29.125 17 29.5 15 29.5Z" fill="#1D1E1F"/>
</svg>
