<svg width="96" height="28" viewBox="0 0 96 28" fill="none" xmlns="http://www.w3.org/2000/svg">
<path d="M20.869 12.8519C21.5461 11.7156 21.935 10.3876 21.935 8.96883C21.935 4.7729 18.5335 1.37143 14.3376 1.37143C10.1417 1.37143 6.7402 4.7729 6.7402 8.96883C6.7402 10.3876 7.12912 11.7156 7.80616 12.8519L11.9487 12.8519C10.6469 12.0494 9.77916 10.6104 9.77916 8.96883C9.77916 6.45127 11.82 4.41039 14.3376 4.41039C16.8552 4.41039 18.896 6.45127 18.896 8.96883C18.896 10.6104 18.0283 12.0494 16.7265 12.8519H20.869Z" fill="#FF5A5F"/>
<path d="M46.922 27.3714V15.8909L66.5064 15.8909V19.6052H50.2986V22.6442L82.0389 22.6442V27.3714H85.0779V22.6442L95.5454 22.6442V19.6052L69.5454 19.6052V4.07273L53.3376 4.07273V7.11169L66.5064 7.11169V12.852L46.922 12.8519V2.04675H43.8831V27.3714H46.922Z" fill="#FF5A5F"/>
<path d="M88.7921 5.08571L74.6103 5.08571V2.04675L91.8311 2.04676V10.826L77.6493 10.826V13.5273L92.5064 13.5273V16.5662L74.6103 16.5662V7.78701L88.7921 7.78701V5.08571Z" fill="#FF5A5F"/>
<path fill-rule="evenodd" clip-rule="evenodd" d="M0.999939 15.8909V18.9299H8.76617V21.2935H4.0389V24.3325H20.7367L18.0303 27.3714H22.0997L24.8058 24.3329L24.8051 24.3323V21.2935H20.2467V18.9299H27.6747C29.0608 20.7752 31.2676 21.9688 33.7532 21.9688C37.9492 21.9688 41.3506 18.5674 41.3506 14.3714C41.3506 10.1755 37.9492 6.77403 33.7532 6.77403C30.0777 6.77403 27.0117 9.38413 26.3078 12.8519H29.4542C30.0799 11.0815 31.7684 9.81299 33.7532 9.81299C36.2708 9.81299 38.3117 11.8539 38.3117 14.3714C38.3117 16.889 36.2708 18.9299 33.7532 18.9299C31.7684 18.9299 30.0799 17.6614 29.4542 15.8909H0.999939ZM17.2077 18.9299V21.2935H11.8051V18.9299H17.2077Z" fill="#FF5A5F"/>
</svg>
