<svg width="26" height="26" viewBox="0 0 26 26" fill="none" xmlns="http://www.w3.org/2000/svg">
<mask id="path-1-inside-1_1_63" fill="white">
<path fill-rule="evenodd" clip-rule="evenodd" d="M15.033 21.2058C10.156 21.7315 5.83297 18.7313 5.37731 14.5045C4.92165 10.2777 8.50589 6.42505 13.3829 5.89929C18.26 5.37354 22.583 8.37379 23.0386 12.6006C23.2777 14.8188 22.4042 16.934 20.8151 18.5193L21.6274 21.7901C21.6842 22.0187 21.4674 22.2206 21.2434 22.1477L17.0458 20.7822C16.4069 20.9862 15.7333 21.1303 15.033 21.2058Z"/>
</mask>
<path fill-rule="evenodd" clip-rule="evenodd" d="M15.033 21.2058C10.156 21.7315 5.83297 18.7313 5.37731 14.5045C4.92165 10.2777 8.50589 6.42505 13.3829 5.89929C18.26 5.37354 22.583 8.37379 23.0386 12.6006C23.2777 14.8188 22.4042 16.934 20.8151 18.5193L21.6274 21.7901C21.6842 22.0187 21.4674 22.2206 21.2434 22.1477L17.0458 20.7822C16.4069 20.9862 15.7333 21.1303 15.033 21.2058Z" fill="white"/>
<path d="M20.8151 18.5193L19.8446 18.7604L19.7081 18.2111L20.1088 17.8114L20.8151 18.5193ZM21.6274 21.7901L20.6569 22.0312L20.6569 22.0312L21.6274 21.7901ZM21.2434 22.1477L20.9341 23.0987L20.9341 23.0987L21.2434 22.1477ZM17.0458 20.7822L16.7417 19.8296L17.0487 19.7316L17.3551 19.8313L17.0458 20.7822ZM6.37155 14.3973C6.75412 17.9462 10.4596 20.693 14.9258 20.2115L15.1402 22.2C9.85238 22.77 4.91181 19.5163 4.38307 14.6117L6.37155 14.3973ZM13.4901 6.89353C9.02384 7.37501 5.98897 10.8485 6.37155 14.3973L4.38307 14.6117C3.85433 9.707 7.98794 5.47509 13.2757 4.90506L13.4901 6.89353ZM22.0444 12.7077C21.6618 9.15889 17.9564 6.41206 13.4901 6.89353L13.2757 4.90506C18.5635 4.33502 23.5041 7.5887 24.0328 12.4934L22.0444 12.7077ZM20.1088 17.8114C21.5139 16.4096 22.2467 14.5842 22.0444 12.7077L24.0328 12.4934C24.3088 15.0533 23.2945 17.4584 21.5213 19.2273L20.1088 17.8114ZM20.6569 22.0312L19.8446 18.7604L21.7856 18.2783L22.5979 21.5491L20.6569 22.0312ZM21.5528 21.1968C21.0301 21.0268 20.5244 21.4978 20.6569 22.0312L22.5979 21.5491C22.8439 22.5397 21.9047 23.4144 20.9341 23.0987L21.5528 21.1968ZM17.3551 19.8313L21.5528 21.1968L20.9341 23.0987L16.7365 21.7332L17.3551 19.8313ZM14.9258 20.2115C15.5592 20.1432 16.1669 20.0131 16.7417 19.8296L17.3499 21.7349C16.647 21.9593 15.9074 22.1173 15.1402 22.2L14.9258 20.2115Z" fill="#1D1E1F" mask="url(#path-1-inside-1_1_63)"/>
<mask id="path-3-inside-2_1_63" fill="white">
<path fill-rule="evenodd" clip-rule="evenodd" d="M11.2845 19.0635C16.4191 19.0344 20.5619 15.5645 20.5378 11.3133C20.5137 7.06215 16.3318 3.63948 11.1972 3.66858C6.06267 3.69768 1.91981 7.16754 1.9439 11.4187C1.95473 13.3288 2.80492 15.0716 4.20376 16.4093L3.41073 19.6102C3.35409 19.8388 3.57095 20.0405 3.7949 19.9675L8.01292 18.5928C9.0316 18.9033 10.1341 19.07 11.2845 19.0635Z"/>
</mask>
<path fill-rule="evenodd" clip-rule="evenodd" d="M11.2845 19.0635C16.4191 19.0344 20.5619 15.5645 20.5378 11.3133C20.5137 7.06215 16.3318 3.63948 11.1972 3.66858C6.06267 3.69768 1.91981 7.16754 1.9439 11.4187C1.95473 13.3288 2.80492 15.0716 4.20376 16.4093L3.41073 19.6102C3.35409 19.8388 3.57095 20.0405 3.7949 19.9675L8.01292 18.5928C9.0316 18.9033 10.1341 19.07 11.2845 19.0635Z" fill="white"/>
<path d="M20.5378 11.3133L19.5378 11.319L19.5378 11.319L20.5378 11.3133ZM11.2845 19.0635L11.2902 20.0635L11.2845 19.0635ZM11.1972 3.66858L11.2029 4.66856L11.1972 3.66858ZM1.9439 11.4187L0.94392 11.4244L1.9439 11.4187ZM4.20376 16.4093L5.17442 16.6497L5.31381 16.0871L4.89488 15.6865L4.20376 16.4093ZM3.41073 19.6102L4.38139 19.8506L4.38139 19.8506L3.41073 19.6102ZM3.7949 19.9675L4.10478 20.9183L4.10478 20.9183L3.7949 19.9675ZM8.01292 18.5928L8.30448 17.6362L8.00285 17.5443L7.70303 17.642L8.01292 18.5928ZM19.5378 11.319C19.5579 14.8495 16.0461 18.0365 11.2788 18.0635L11.2902 20.0635C16.792 20.0323 21.566 16.2795 21.5378 11.3077L19.5378 11.319ZM11.2029 4.66856C15.9702 4.64154 19.5178 7.78849 19.5378 11.319L21.5378 11.3077C21.5096 6.33581 16.6934 2.63741 11.1916 2.6686L11.2029 4.66856ZM2.94389 11.4131C2.92388 7.88254 6.43562 4.69559 11.2029 4.66856L11.1916 2.6686C5.68971 2.69978 0.915739 6.45254 0.94392 11.4244L2.94389 11.4131ZM4.89488 15.6865C3.66389 14.5094 2.95297 13.0157 2.94389 11.4131L0.94392 11.4244C0.956489 13.6419 1.94596 15.6339 3.51265 17.132L4.89488 15.6865ZM4.38139 19.8506L5.17442 16.6497L3.23311 16.1688L2.44008 19.3697L4.38139 19.8506ZM3.48501 19.0168C4.00755 18.8465 4.51356 19.3172 4.38139 19.8506L2.44008 19.3697C2.19463 20.3604 3.13435 21.2346 4.10478 20.9183L3.48501 19.0168ZM7.70303 17.642L3.48501 19.0168L4.10478 20.9183L8.32281 19.5435L7.70303 17.642ZM11.2788 18.0635C10.2287 18.0694 9.22635 17.9172 8.30448 17.6362L7.72135 19.5493C8.83685 19.8893 10.0396 20.0706 11.2902 20.0635L11.2788 18.0635Z" fill="#1D1E1F" mask="url(#path-3-inside-2_1_63)"/>
</svg>
