<svg width="25" height="22" viewBox="0 0 25 22" fill="none" xmlns="http://www.w3.org/2000/svg">
<path fill-rule="evenodd" clip-rule="evenodd" d="M15.0331 19.2058C10.156 19.7315 5.83302 16.7313 5.37736 12.5045C4.92171 8.27773 8.50594 4.42505 13.383 3.89929C18.26 3.37354 22.583 6.37379 23.0387 10.6006C23.2778 12.8188 22.4043 14.934 20.8151 16.5193L21.6275 19.7901C21.6842 20.0187 21.4675 20.2206 21.2435 20.1477L17.0459 18.7822C16.407 18.9862 15.7334 19.1303 15.0331 19.2058Z" fill="#FF5A5F"/>
<mask id="path-2-outside-1_1_1220" maskUnits="userSpaceOnUse" x="-1.17664" y="-0.507518" width="24.0069" height="22.2315" fill="black">
<rect fill="white" x="-1.17664" y="-0.507518" width="24.0069" height="22.2315"/>
<path fill-rule="evenodd" clip-rule="evenodd" d="M11.2845 17.0635C16.4191 17.0344 20.562 13.5645 20.5379 9.31333C20.5138 5.06215 16.3319 1.63948 11.1973 1.66858C6.06271 1.69768 1.91985 5.16754 1.94395 9.41873C1.95478 11.3288 2.80497 13.0716 4.20381 14.4093L3.41078 17.6102C3.35414 17.8388 3.571 18.0405 3.79494 17.9675L8.01296 16.5928C9.03164 16.9033 10.1342 17.07 11.2845 17.0635Z"/>
</mask>
<path fill-rule="evenodd" clip-rule="evenodd" d="M11.2845 17.0635C16.4191 17.0344 20.562 13.5645 20.5379 9.31333C20.5138 5.06215 16.3319 1.63948 11.1973 1.66858C6.06271 1.69768 1.91985 5.16754 1.94395 9.41873C1.95478 11.3288 2.80497 13.0716 4.20381 14.4093L3.41078 17.6102C3.35414 17.8388 3.571 18.0405 3.79494 17.9675L8.01296 16.5928C9.03164 16.9033 10.1342 17.07 11.2845 17.0635Z" fill="#FF5A5F"/>
<path d="M20.5379 9.31333L19.5379 9.319L19.5379 9.319L20.5379 9.31333ZM11.2845 17.0635L11.2902 18.0635L11.2845 17.0635ZM11.1973 1.66858L11.203 2.66856L11.1973 1.66858ZM1.94395 9.41873L0.943966 9.42439L1.94395 9.41873ZM4.20381 14.4093L5.17446 14.6497L5.31385 14.0871L4.89493 13.6865L4.20381 14.4093ZM3.41078 17.6102L4.38143 17.8506L4.38143 17.8506L3.41078 17.6102ZM3.79494 17.9675L4.10483 18.9183L4.10483 18.9183L3.79494 17.9675ZM8.01296 16.5928L8.30453 15.6362L8.00289 15.5443L7.70308 15.642L8.01296 16.5928ZM19.5379 9.319C19.5579 12.8495 16.0462 16.0365 11.2789 16.0635L11.2902 18.0635C16.7921 18.0323 21.566 14.2795 21.5379 9.30766L19.5379 9.319ZM11.203 2.66856C15.9702 2.64154 19.5179 5.78849 19.5379 9.319L21.5379 9.30766C21.5097 4.33581 16.6935 0.637411 11.1916 0.668596L11.203 2.66856ZM2.94393 9.41306C2.92392 5.88254 6.43567 2.69559 11.203 2.66856L11.1916 0.668596C5.68976 0.699781 0.915785 4.45254 0.943966 9.42439L2.94393 9.41306ZM4.89493 13.6865C3.66393 12.5094 2.95302 11.0157 2.94393 9.41306L0.943966 9.42439C0.956535 11.6419 1.94601 13.6339 3.51269 15.132L4.89493 13.6865ZM4.38143 17.8506L5.17446 14.6497L3.23316 14.1688L2.44013 17.3697L4.38143 17.8506ZM3.48506 17.0168C4.0076 16.8465 4.5136 17.3172 4.38143 17.8506L2.44013 17.3697C2.19467 18.3604 3.1344 19.2346 4.10483 18.9183L3.48506 17.0168ZM7.70308 15.642L3.48506 17.0168L4.10483 18.9183L8.32285 17.5435L7.70308 15.642ZM11.2789 16.0635C10.2287 16.0694 9.22639 15.9172 8.30453 15.6362L7.7214 17.5493C8.83689 17.8893 10.0397 18.0706 11.2902 18.0635L11.2789 16.0635Z" fill="white" mask="url(#path-2-outside-1_1_1220)"/>
<circle cx="7" cy="9" r="1" fill="white"/>
<circle cx="11" cy="9" r="1" fill="white"/>
<circle cx="15" cy="9" r="1" fill="white"/>
</svg>
